<svg id="Capa_1" data-name="Capa 1" xmlns="http://www.w3.org/2000/svg" viewBox="0 0 76.5 59"><path d="M37,6.1H32.2c0-.1,0-.1-.1-.2l7-5.9c.1.1.1.1.2.1V9.9a1.31,1.31,0,0,0,.6,1.2c4.9,3.6,9.7,7.2,14.6,10.8a1.72,1.72,0,0,1,.8,1.6v12H75.6a.79.79,0,0,1,.8.8h0V58.1c0,.8-.2,1-1,1H.6a1,1,0,0,1-.6-.9V36.3a.86.86,0,0,1,.8-.8H20.9V23.6a1.72,1.72,0,0,1,.8-1.6c4.9-4,9.9-7.9,14.8-11.9A1.82,1.82,0,0,0,37,9,28,28,0,0,0,37,6.1Zm1.2,20a4.25,4.25,0,1,0-4.1-4.3A4,4,0,0,0,38.2,26.1Zm1.9,15.6H34.7a1.9,1.9,0,0,0-1.9,1.9V59h9.1V43.6A1.82,1.82,0,0,0,40.1,41.7Z" fill="#e8e8e8"/></svg>