<svg id="Capa_1" data-name="Capa 1" xmlns="http://www.w3.org/2000/svg" viewBox="0 0 147.89 57.23"><path d="M147.4,36.79s3.7,8.28-5.93,9.87c.06.64.13,1.3.13,1.3l-3.85-3.09,3.17-3.66.17,1.72a3.58,3.58,0,0,0,3.64-4.19C145.18,38.29,147.4,36.79,147.4,36.79Z" fill="#fff"/><path d="M135.27,38.94s2.27-8.78,10.79-4l.71-1.09,1.09,4.81-4.76.89.93-1.46a3.58,3.58,0,0,0-5.46,1C137.94,39.15,135.27,38.94,135.27,38.94Z" fill="#fff"/><path d="M143.51,45.62s-8.82,1.45-8.57-6.73l-1.29-.14,3.75-2.56,3,3.28-1.72-.18s-.8,3.25,3.43,3.77C142.45,43.52,143.51,45.62,143.51,45.62Z" fill="#fff"/><path d="M146.48,42.72s-2.56,3.3-5,4c.06.64.13,1.29.13,1.29l-3.85-3.08,3.17-3.66.17,1.72a3.7,3.7,0,0,0,3.64-2.42C145.18,40.13,146.48,42.72,146.48,42.72Z" fill="#fff"/><path d="M21.07,16.2h2.26l2.9,9.87-2.9,1a15,15,0,0,0-4.89-6.25,10.84,10.84,0,0,0-6.37-2.27,6.37,6.37,0,0,0-4,1.21,3.52,3.52,0,0,0-1.55,2.79,3.39,3.39,0,0,0,1.13,2.55,14.92,14.92,0,0,0,4.94,2.48l6.29,2.23q5.32,1.91,7.26,4.06a7.39,7.39,0,0,1,1.9,5,8.14,8.14,0,0,1-1.42,4.53,9.7,9.7,0,0,1-4.11,3.47,14.14,14.14,0,0,1-6.18,1.29A14.39,14.39,0,0,1,7,45l-.68,2.33H4L0,36.78l2.9-1.16A24.49,24.49,0,0,0,8.46,42.2a12.87,12.87,0,0,0,7.89,2.74A7,7,0,0,0,21,43.44a4.33,4.33,0,0,0,1.81-3.34,4.07,4.07,0,0,0-1.13-2.77,11.71,11.71,0,0,0-4.45-2.39L9.74,32.23q-4.8-1.74-6.68-3.81a6.86,6.86,0,0,1-1.87-4.74,7.34,7.34,0,0,1,3.05-5.76A11.89,11.89,0,0,1,12,15.42a14.14,14.14,0,0,1,4.39.63,12.63,12.63,0,0,1,3.81,2.09Z" fill="#fff"/><path d="M52.84,28.65V25.13c0-2.38-.67-4.09-2-5.11a9.18,9.18,0,0,0-5.66-1.53,10.39,10.39,0,0,0-3.17.43,5.68,5.68,0,0,0-2.18,1.2,4.73,4.73,0,0,0-1.22,1.72c-.1.24-.36,1.15-.77,2.74q-.75,2.91-3,2.91a2.69,2.69,0,0,1-2.08-.86,3.25,3.25,0,0,1-.79-2.3,6.74,6.74,0,0,1,1.58-4.18,11.35,11.35,0,0,1,4.82-3.39A20.06,20.06,0,0,1,46,15.42a17.87,17.87,0,0,1,7.07,1.27,8.86,8.86,0,0,1,4.32,3.66q1,1.65,1,6v12.4a22.09,22.09,0,0,0,.16,3.45,3.7,3.7,0,0,0,1.24,2.08,3.65,3.65,0,0,0,2.31.69,11.47,11.47,0,0,0,3.55-.68V47.1a17.43,17.43,0,0,1-4.81.78A10.08,10.08,0,0,1,57,47.23a6.37,6.37,0,0,1-2.57-1.88,6.27,6.27,0,0,1-1.29-3,28.94,28.94,0,0,1-7,4.26,17.16,17.16,0,0,1-6.32,1.23,10.62,10.62,0,0,1-7.23-2.42A7.25,7.25,0,0,1,30.83,36a9.24,9.24,0,0,1,3.1-3.13,21.23,21.23,0,0,1,6.54-2.39A108.89,108.89,0,0,1,52.84,28.65Zm0,2.81c-5,.73-8.08,1.23-9.27,1.51a16.94,16.94,0,0,0-5,1.78,6.4,6.4,0,0,0-2.17,2.08,4.64,4.64,0,0,0-.64,2.37,4.57,4.57,0,0,0,.72,2.43,5,5,0,0,0,2.06,1.86,6.06,6.06,0,0,0,2.8.68,13.81,13.81,0,0,0,4.75-1,33.41,33.41,0,0,0,6.78-3.91Z" fill="#fff"/><path d="M63.4,5.39V2.71a19.45,19.45,0,0,0,4.13-.77A25.51,25.51,0,0,0,72,0h2.36V19.68a22,22,0,0,1,5.84-3.19,18.19,18.19,0,0,1,6.13-1.07A12.29,12.29,0,0,1,93,17.36a13.27,13.27,0,0,1,4.82,5.47,18.51,18.51,0,0,1,1.76,8.34,17.77,17.77,0,0,1-4.42,12.42A13.41,13.41,0,0,1,84.76,48.1,14.06,14.06,0,0,1,78,46.52a14.93,14.93,0,0,1-4.26-3.58L72,47.33H69V5.39ZM74.34,22.87V35.3a13.83,13.83,0,0,0,.42,4.11,6.57,6.57,0,0,0,1.73,2.42,9.93,9.93,0,0,0,3.06,2A9.69,9.69,0,0,0,88.41,43a10.23,10.23,0,0,0,3.71-4.49,17.12,17.12,0,0,0,1.35-7.13q0-5.84-2.87-9.35a7.71,7.71,0,0,0-6.42-2.91,12.84,12.84,0,0,0-4.32.79A28.67,28.67,0,0,0,74.34,22.87Z" fill="#fff"/><path d="M128.61,39l2.07,1.67a28.6,28.6,0,0,1-4.57,4.46,15.43,15.43,0,0,1-4.18,2.3,14.52,14.52,0,0,1-4.61.66,15.28,15.28,0,0,1-13.91-7.74,16.88,16.88,0,0,1-2-8.45,18,18,0,0,1,2-8.71,14.56,14.56,0,0,1,5.5-5.7A15.87,15.87,0,0,1,117,15.42a15.31,15.31,0,0,1,6,1.08,11,11,0,0,1,4.32,3.25,13.79,13.79,0,0,1,2.58,5,18.06,18.06,0,0,1,.52,4.25H107.64c-.07,1.06-.1,1.84-.1,2.36A17.74,17.74,0,0,0,109,38.59a10.42,10.42,0,0,0,3.76,4.69,9.63,9.63,0,0,0,5.31,1.5,10.69,10.69,0,0,0,4.87-1.18A23.49,23.49,0,0,0,128.61,39Zm-4.13-13a12.33,12.33,0,0,0-1.37-4.39,6.21,6.21,0,0,0-2.52-2.25,7.83,7.83,0,0,0-3.66-.84,8.84,8.84,0,0,0-3.81.84,8.11,8.11,0,0,0-3,2.32,13.39,13.39,0,0,0-2,4.32Z" fill="#fff"/><path d="M3.73,56.25l.45-.1a1.11,1.11,0,0,0,1.18.76,1.19,1.19,0,0,0,.72-.18.63.63,0,0,0,.24-.51.46.46,0,0,0-.19-.38.91.91,0,0,0-.42-.2l-.8-.19a2.13,2.13,0,0,1-.51-.18A.92.92,0,0,1,4.07,55a.94.94,0,0,1,.24-1.25,1.55,1.55,0,0,1,1-.28,1.38,1.38,0,0,1,1.43.92l-.46.13a.75.75,0,0,0-.37-.5,1.23,1.23,0,0,0-.62-.17,1.07,1.07,0,0,0-.59.17.51.51,0,0,0-.25.46c0,.27.21.46.65.56l.74.16c.69.15,1,.5,1,1a1,1,0,0,1-.39.81,1.64,1.64,0,0,1-1.08.32A1.57,1.57,0,0,1,3.73,56.25Z" fill="#fff"/><path d="M7.89,53.5V54H7.4V53.5Zm0,1v2.76H7.42V54.47Z" fill="#fff"/><path d="M8.27,56.52l.44-.09c.1.35.41.53.93.53a.9.9,0,0,0,.48-.12.4.4,0,0,0,.2-.34q0-.33-.51-.42L9.19,56a1.19,1.19,0,0,1-.58-.25.64.64,0,0,1-.22-.51.7.7,0,0,1,.3-.58,1.2,1.2,0,0,1,.79-.24c.65,0,1,.24,1.19.71l-.42.08a.72.72,0,0,0-.75-.43.92.92,0,0,0-.46.11.33.33,0,0,0-.18.3c0,.2.16.33.46.38l.58.1c.6.1.9.38.9.82a.73.73,0,0,1-.33.62,1.62,1.62,0,0,1-.9.23A1.19,1.19,0,0,1,8.27,56.52Z" fill="#fff"/><path d="M12.67,56.94v.34l-.42,0a.75.75,0,0,1-.86-.84V54.81h-.53v-.34h.53l0-.7.43,0v.73h.66v.34h-.66v1.73c0,.29.15.43.47.43Z" fill="#fff"/><path d="M15,56.41l.43.08a1.14,1.14,0,0,1-.46.59,1.42,1.42,0,0,1-.8.23,1.27,1.27,0,0,1-1-.4,1.45,1.45,0,0,1-.38-1,1.48,1.48,0,0,1,.39-1.07,1.31,1.31,0,0,1,1-.41,1.24,1.24,0,0,1,.94.38,1.65,1.65,0,0,1,.36,1.12H13.33a1,1,0,0,0,.28.85,1,1,0,0,0,.59.22A.82.82,0,0,0,15,56.41Zm0-.84a1.07,1.07,0,0,0-.08-.41.64.64,0,0,0-.26-.31.69.69,0,0,0-.43-.13.82.82,0,0,0-.58.23.94.94,0,0,0-.27.62Z" fill="#fff"/><path d="M20,57.23h-.45V55.52a1.36,1.36,0,0,0,0-.4.54.54,0,0,0-.19-.25.6.6,0,0,0-.34-.11.74.74,0,0,0-.51.23.87.87,0,0,0-.25.69v1.55h-.44V55.41a.59.59,0,0,0-.58-.66.68.68,0,0,0-.51.23.89.89,0,0,0-.22.6v1.65H16V54.47h.4V55a1,1,0,0,1,.91-.61.8.8,0,0,1,.54.2.84.84,0,0,1,.29.47,1,1,0,0,1,.93-.67.92.92,0,0,1,.53.16.82.82,0,0,1,.3.38,1.82,1.82,0,0,1,.07.59Z" fill="#fff"/><path d="M23.12,57.23h-.46c0-.08,0-.25-.05-.49a1.08,1.08,0,0,1-1,.57,1.06,1.06,0,0,1-.76-.25.76.76,0,0,1-.27-.59.82.82,0,0,1,.38-.69,2.35,2.35,0,0,1,1.3-.27h.39a1.7,1.7,0,0,0-.05-.47.48.48,0,0,0-.23-.24,1.24,1.24,0,0,0-.47-.08c-.46,0-.74.16-.81.5l-.43-.07c.11-.51.54-.77,1.31-.77a1,1,0,0,1,1.13,1.13V56.7A2.2,2.2,0,0,0,23.12,57.23Zm-.51-1.38h-.43a1.77,1.77,0,0,0-.84.16.53.53,0,0,0-.31.49.46.46,0,0,0,.17.35.69.69,0,0,0,.47.14.9.9,0,0,0,.68-.28.94.94,0,0,0,.27-.67A1.21,1.21,0,0,0,22.61,55.85Z" fill="#fff"/><path d="M27.54,53.5v3.73h-.42v-.47a1,1,0,0,1-.94.55,1,1,0,0,1-.85-.41,1.56,1.56,0,0,1-.33-1,1.66,1.66,0,0,1,.33-1.06,1.08,1.08,0,0,1,1.75,0V53.5Zm-.46,2a.76.76,0,0,0-.24-.59.81.81,0,0,0-.56-.21.69.69,0,0,0-.56.28,1.27,1.27,0,0,0-.22.8,1.55,1.55,0,0,0,.2.85.66.66,0,0,0,.56.29.76.76,0,0,0,.57-.26.82.82,0,0,0,.25-.59Z" fill="#fff"/><path d="M30.28,56.41l.43.08a1.18,1.18,0,0,1-.45.59,1.44,1.44,0,0,1-.8.23,1.28,1.28,0,0,1-1-.4,1.44,1.44,0,0,1-.37-1,1.48,1.48,0,0,1,.39-1.07,1.3,1.3,0,0,1,1-.41,1.24,1.24,0,0,1,.93.38,1.55,1.55,0,0,1,.36,1.12H28.61a1.07,1.07,0,0,0,.28.85,1,1,0,0,0,.6.22A.81.81,0,0,0,30.28,56.41Zm0-.84a1.3,1.3,0,0,0-.08-.41.7.7,0,0,0-.26-.31.72.72,0,0,0-.44-.13.82.82,0,0,0-.58.23.94.94,0,0,0-.27.62Z" fill="#fff"/><path d="M35.44,57.23h-.52l-.4-1.09H33l-.36,1.09h-.42l1.3-3.73h.57Zm-1-1.44L33.8,54l-.62,1.79Z" fill="#fff"/><path d="M38.1,53.5v3.73h-.41v-.47a1,1,0,0,1-.94.55,1,1,0,0,1-.85-.41,1.51,1.51,0,0,1-.34-1,1.66,1.66,0,0,1,.33-1.06,1.05,1.05,0,0,1,.88-.43,1,1,0,0,1,.87.46V53.5Zm-.46,2A.76.76,0,0,0,37.4,55a.79.79,0,0,0-.55-.21.66.66,0,0,0-.56.28,1.27,1.27,0,0,0-.22.8,1.47,1.47,0,0,0,.2.85.66.66,0,0,0,.56.29.79.79,0,0,0,.57-.26.81.81,0,0,0,.24-.59Z" fill="#fff"/><path d="M42.86,57.23h-.45V55.52a1.36,1.36,0,0,0,0-.4.48.48,0,0,0-.19-.25.58.58,0,0,0-.34-.11.74.74,0,0,0-.51.23.9.9,0,0,0-.24.69v1.55h-.45V55.41a.59.59,0,0,0-.58-.66.71.71,0,0,0-.51.23.88.88,0,0,0-.21.6v1.65H38.9V54.47h.39V55a1,1,0,0,1,.91-.61.81.81,0,0,1,.55.2.88.88,0,0,1,.28.47,1,1,0,0,1,.94-.67,1,1,0,0,1,.53.16.74.74,0,0,1,.29.38,1.82,1.82,0,0,1,.07.59Z" fill="#fff"/><path d="M44.13,53.5V54h-.5V53.5Zm0,1v2.76h-.46V54.47Z" fill="#fff"/><path d="M47.24,57.23h-.43V55.46a.67.67,0,0,0-.18-.54.6.6,0,0,0-.43-.16.77.77,0,0,0-.6.27,1,1,0,0,0-.23.69v1.51h-.46V54.47h.42V55a1.09,1.09,0,0,1,.94-.59,1,1,0,0,1,.56.16.89.89,0,0,1,.32.36,2,2,0,0,1,.09.73Z" fill="#fff"/><path d="M48.51,53.5V54H48V53.5Zm0,1v2.76H48V54.47Z" fill="#fff"/><path d="M48.89,56.52l.43-.09c.1.35.41.53.93.53a1,1,0,0,0,.49-.12.4.4,0,0,0,.2-.34q0-.33-.51-.42L49.81,56a1.23,1.23,0,0,1-.59-.25.66.66,0,0,1-.21-.51.69.69,0,0,1,.29-.58,1.23,1.23,0,0,1,.8-.24,1.09,1.09,0,0,1,1.19.71l-.42.08a.72.72,0,0,0-.75-.43.89.89,0,0,0-.46.11.33.33,0,0,0-.18.3c0,.2.15.33.46.38l.57.1c.61.1.91.38.91.82a.71.71,0,0,1-.34.62,1.56,1.56,0,0,1-.89.23C49.49,57.31,49.05,57.05,48.89,56.52Z" fill="#fff"/><path d="M53.28,56.94v.34l-.42,0a.75.75,0,0,1-.86-.84V54.81h-.52v-.34H52l0-.7.43,0v.73h.66v.34h-.66v1.73c0,.29.16.43.48.43Z" fill="#fff"/><path d="M54.12,57.23h-.46V54.47h.41v.65a1.32,1.32,0,0,1,.43-.6.8.8,0,0,1,.44-.13h.18v.41H55a.86.86,0,0,0-.63.26,1,1,0,0,0-.27.7Z" fill="#fff"/><path d="M57.83,57.23h-.46c0-.08,0-.25,0-.49a1.08,1.08,0,0,1-1,.57,1.06,1.06,0,0,1-.76-.25.76.76,0,0,1-.27-.59.82.82,0,0,1,.38-.69,2.35,2.35,0,0,1,1.3-.27h.39a1.7,1.7,0,0,0,0-.47.48.48,0,0,0-.23-.24,1.21,1.21,0,0,0-.47-.08c-.46,0-.73.16-.81.5l-.43-.07c.11-.51.54-.77,1.31-.77a1,1,0,0,1,1.13,1.13V56.7A2.2,2.2,0,0,0,57.83,57.23Zm-.51-1.38h-.43a1.77,1.77,0,0,0-.84.16.55.55,0,0,0-.31.49.46.46,0,0,0,.17.35.71.71,0,0,0,.47.14.88.88,0,0,0,.68-.28.94.94,0,0,0,.27-.67A1.21,1.21,0,0,0,57.32,55.85Z" fill="#fff"/><path d="M60.31,56.27l.42.06a1.21,1.21,0,0,1-.39.72,1.15,1.15,0,0,1-.76.26,1.1,1.1,0,0,1-.93-.42,1.68,1.68,0,0,1-.32-1,1.6,1.6,0,0,1,.34-1,1.11,1.11,0,0,1,.92-.42,1.08,1.08,0,0,1,.77.27,1.17,1.17,0,0,1,.37.7l-.42.07c-.08-.45-.31-.68-.71-.68a.65.65,0,0,0-.58.3,1.34,1.34,0,0,0-.21.79,1.4,1.4,0,0,0,.21.82.64.64,0,0,0,.57.3Q60.16,57,60.31,56.27Z" fill="#fff"/><path d="M61.7,53.5V54h-.49V53.5Zm0,1v2.76h-.46V54.47Z" fill="#fff"/><path d="M63.54,57.31a1.17,1.17,0,0,1-.95-.42,1.6,1.6,0,0,1-.34-1,1.45,1.45,0,0,1,.38-1.05,1.28,1.28,0,0,1,1-.4,1.17,1.17,0,0,1,1,.42,1.53,1.53,0,0,1,.36,1,1.49,1.49,0,0,1-.38,1A1.32,1.32,0,0,1,63.54,57.31Zm0-.35a.77.77,0,0,0,.59-.28,1.3,1.3,0,0,0,.23-.84,1.15,1.15,0,0,0-.25-.83.78.78,0,0,0-.58-.26A.77.77,0,0,0,63,55a1.19,1.19,0,0,0-.24.83,1.26,1.26,0,0,0,.24.86A.77.77,0,0,0,63.58,57Zm.86-3.44L63.23,54l-.12-.22,1.16-.63Z" fill="#fff"/><path d="M67.81,57.23h-.44V55.46a.67.67,0,0,0-.17-.54.63.63,0,0,0-.44-.16.76.76,0,0,0-.59.27,1,1,0,0,0-.24.69v1.51h-.46V54.47h.43V55a1.08,1.08,0,0,1,.94-.59,1,1,0,0,1,.56.16.89.89,0,0,1,.32.36,2,2,0,0,1,.09.73Z" fill="#fff"/><path d="M72.29,53.5v3.73h-.42v-.47a1,1,0,0,1-.94.55,1,1,0,0,1-.85-.41,1.56,1.56,0,0,1-.33-1,1.66,1.66,0,0,1,.33-1.06,1.08,1.08,0,0,1,1.75,0V53.5Zm-.46,2a.76.76,0,0,0-.24-.59.81.81,0,0,0-.56-.21.69.69,0,0,0-.56.28,1.27,1.27,0,0,0-.22.8,1.55,1.55,0,0,0,.2.85A.66.66,0,0,0,71,57a.76.76,0,0,0,.57-.26.82.82,0,0,0,.25-.59Z" fill="#fff"/><path d="M75,56.41l.43.08a1.18,1.18,0,0,1-.45.59,1.44,1.44,0,0,1-.8.23,1.28,1.28,0,0,1-1-.4,1.44,1.44,0,0,1-.37-1,1.48,1.48,0,0,1,.39-1.07,1.3,1.3,0,0,1,1-.41,1.24,1.24,0,0,1,.93.38,1.55,1.55,0,0,1,.36,1.12H73.36a1,1,0,0,0,.28.85,1,1,0,0,0,.6.22A.81.81,0,0,0,75,56.41Zm0-.84a1.3,1.3,0,0,0-.08-.41.77.77,0,0,0-.26-.31.72.72,0,0,0-.44-.13.82.82,0,0,0-.58.23.94.94,0,0,0-.27.62Z" fill="#fff"/><path d="M77.49,57.23V53.5h1.59a1.25,1.25,0,0,1,.88.27.87.87,0,0,1,.29.64.85.85,0,0,1-.71.84,1.15,1.15,0,0,1,.63.36,1,1,0,0,1,.2.59,1,1,0,0,1-.31.74,1.4,1.4,0,0,1-1,.29ZM78,55.1h.87a1,1,0,0,0,.72-.19.65.65,0,0,0,.18-.46.49.49,0,0,0-.19-.41.89.89,0,0,0-.58-.16H78Zm0,1.72h1.07a1,1,0,0,0,.61-.17.59.59,0,0,0,.21-.47.71.71,0,0,0-.1-.37.62.62,0,0,0-.27-.26,1.18,1.18,0,0,0-.52-.09H78Z" fill="#fff"/><path d="M82.91,56.41l.43.08a1.14,1.14,0,0,1-.46.59,1.42,1.42,0,0,1-.8.23,1.26,1.26,0,0,1-1-.4,1.45,1.45,0,0,1-.38-1,1.48,1.48,0,0,1,.39-1.07,1.31,1.31,0,0,1,1-.41,1.21,1.21,0,0,1,.93.38,1.6,1.6,0,0,1,.37,1.12H81.23a1,1,0,0,0,.29.85,1,1,0,0,0,.59.22A.82.82,0,0,0,82.91,56.41Zm0-.84a1.07,1.07,0,0,0-.08-.41.7.7,0,0,0-.26-.31.69.69,0,0,0-.43-.13.84.84,0,0,0-.59.23.88.88,0,0,0-.26.62Z" fill="#fff"/><path d="M86.28,57.23h-.43V55.46a.67.67,0,0,0-.18-.54.6.6,0,0,0-.43-.16.76.76,0,0,0-.59.27,1,1,0,0,0-.24.69v1.51H84V54.47h.43V55a1.07,1.07,0,0,1,.93-.59,1.06,1.06,0,0,1,.57.16,1,1,0,0,1,.32.36,2.38,2.38,0,0,1,.08.73Z" fill="#fff"/><path d="M89,56.41l.43.08a1.14,1.14,0,0,1-.46.59,1.4,1.4,0,0,1-.8.23,1.27,1.27,0,0,1-1-.4,1.44,1.44,0,0,1-.37-1,1.48,1.48,0,0,1,.39-1.07,1.29,1.29,0,0,1,1-.41,1.24,1.24,0,0,1,.94.38,1.65,1.65,0,0,1,.36,1.12H87.36a1,1,0,0,0,.28.85,1,1,0,0,0,.59.22A.82.82,0,0,0,89,56.41Zm0-.84a1.3,1.3,0,0,0-.09-.41.68.68,0,0,0-.25-.31.74.74,0,0,0-.44-.13.82.82,0,0,0-.58.23.94.94,0,0,0-.27.62Z" fill="#fff"/><path d="M91.3,54.47v.34h-.7v2.42h-.46V54.81h-.5v-.34h.5a1.11,1.11,0,0,1,.27-.86,1.12,1.12,0,0,1,.64-.19,2.29,2.29,0,0,1,.43,0v.34l-.29,0a.71.71,0,0,0-.45.12.63.63,0,0,0-.14.47v.11Z" fill="#fff"/><path d="M92.22,53.5V54h-.49V53.5Zm0,1v2.76h-.46V54.47Z" fill="#fff"/><path d="M94.75,56.27l.41.06a1.11,1.11,0,0,1-1.14,1,1.09,1.09,0,0,1-.93-.42,1.62,1.62,0,0,1-.32-1,1.6,1.6,0,0,1,.34-1,1.11,1.11,0,0,1,.92-.42,1.08,1.08,0,0,1,.77.27,1.11,1.11,0,0,1,.36.7l-.41.07c-.08-.45-.32-.68-.71-.68a.65.65,0,0,0-.58.3,1.34,1.34,0,0,0-.21.79,1.48,1.48,0,0,0,.2.82A.67.67,0,0,0,94,57Q94.6,57,94.75,56.27Z" fill="#fff"/><path d="M96.14,53.5V54h-.49V53.5Zm0,1v2.76h-.46V54.47Z" fill="#fff"/><path d="M98,57.31a1.15,1.15,0,0,1-1-.42,1.6,1.6,0,0,1-.34-1,1.45,1.45,0,0,1,.38-1.05,1.28,1.28,0,0,1,1-.4,1.17,1.17,0,0,1,1,.42,1.53,1.53,0,0,1,.36,1,1.45,1.45,0,0,1-.39,1A1.28,1.28,0,0,1,98,57.31ZM98,57a.74.74,0,0,0,.58-.28,1.24,1.24,0,0,0,.24-.84,1.15,1.15,0,0,0-.25-.83.78.78,0,0,0-.58-.26.77.77,0,0,0-.58.26,1.19,1.19,0,0,0-.24.83,1.26,1.26,0,0,0,.24.86A.77.77,0,0,0,98,57Z" fill="#fff"/><path d="M99.51,56.52l.44-.09c.1.35.41.53.93.53a.9.9,0,0,0,.48-.12.38.38,0,0,0,.2-.34c0-.22-.17-.36-.5-.42l-.63-.11a1.19,1.19,0,0,1-.58-.25.67.67,0,0,1-.22-.51.7.7,0,0,1,.3-.58,1.23,1.23,0,0,1,.8-.24,1.09,1.09,0,0,1,1.19.71l-.43.08a.72.72,0,0,0-.74-.43.89.89,0,0,0-.46.11.32.32,0,0,0-.19.3c0,.2.16.33.47.38l.57.1c.61.1.91.38.91.82a.71.71,0,0,1-.34.62,1.58,1.58,0,0,1-.9.23A1.19,1.19,0,0,1,99.51,56.52Z" fill="#fff"/><path d="M106.57,56.82v.41H104V53.5h2.54v.41h-2V55.1h1.61v.38h-1.61v1.34Z" fill="#fff"/><path d="M109.42,53.5v3.73H109v-.47a1,1,0,0,1-.94.55,1,1,0,0,1-.85-.41,1.56,1.56,0,0,1-.33-1,1.66,1.66,0,0,1,.33-1.06,1.08,1.08,0,0,1,1.75,0V53.5Zm-.46,2a.76.76,0,0,0-.24-.59.81.81,0,0,0-.55-.21.69.69,0,0,0-.57.28,1.27,1.27,0,0,0-.22.8,1.55,1.55,0,0,0,.2.85.67.67,0,0,0,.56.29.76.76,0,0,0,.57-.26.82.82,0,0,0,.25-.59Z" fill="#fff"/><path d="M112.54,57.23h-.42v-.52a1,1,0,0,1-.94.6.91.91,0,0,1-.71-.28,1.12,1.12,0,0,1-.26-.79V54.47h.46v1.77a.71.71,0,0,0,.18.56.66.66,0,0,0,.41.16.7.7,0,0,0,.4-.12.91.91,0,0,0,.3-.34.94.94,0,0,0,.12-.47V54.47h.46Z" fill="#fff"/><path d="M115.08,56.27l.42.06a1.21,1.21,0,0,1-.39.72,1.24,1.24,0,0,1-1.69-.16,1.68,1.68,0,0,1-.32-1,1.65,1.65,0,0,1,.34-1,1.12,1.12,0,0,1,.92-.42,1.1,1.1,0,0,1,.78.27,1.21,1.21,0,0,1,.36.7l-.42.07c-.07-.45-.31-.68-.7-.68a.67.67,0,0,0-.59.3,1.34,1.34,0,0,0-.2.79,1.4,1.4,0,0,0,.2.82.66.66,0,0,0,.57.3Q114.93,57,115.08,56.27Z" fill="#fff"/><path d="M118.32,57.23h-.46c0-.08,0-.25,0-.49a1.08,1.08,0,0,1-1,.57,1.06,1.06,0,0,1-.76-.25.76.76,0,0,1-.27-.59.82.82,0,0,1,.38-.69,2.35,2.35,0,0,1,1.3-.27h.39a1.7,1.7,0,0,0,0-.47.45.45,0,0,0-.23-.24,1.21,1.21,0,0,0-.47-.08c-.46,0-.73.16-.81.5l-.42-.07c.1-.51.53-.77,1.3-.77a1,1,0,0,1,1.13,1.13V56.7A2.2,2.2,0,0,0,118.32,57.23Zm-.51-1.38h-.43a1.77,1.77,0,0,0-.84.16.54.54,0,0,0-.3.49.44.44,0,0,0,.16.35.71.71,0,0,0,.47.14.88.88,0,0,0,.68-.28.94.94,0,0,0,.27-.67A1.21,1.21,0,0,0,117.81,55.85Z" fill="#fff"/><path d="M120.39,56.94v.34l-.42,0a.75.75,0,0,1-.86-.84V54.81h-.52v-.34h.52l0-.7.43,0v.73h.66v.34h-.66v1.73c0,.29.16.43.48.43Z" fill="#fff"/><path d="M121.25,53.5V54h-.5V53.5Zm0,1v2.76h-.46V54.47Z" fill="#fff"/><path d="M124.19,54.47l-1,2.76h-.48l-1.06-2.76h.51l.83,2.25.81-2.25Z" fill="#fff"/><path d="M125.66,57.31a1.15,1.15,0,0,1-1-.42,1.6,1.6,0,0,1-.34-1,1.41,1.41,0,0,1,.38-1.05,1.26,1.26,0,0,1,1-.4,1.19,1.19,0,0,1,1,.42,1.52,1.52,0,0,1,.35,1,1.44,1.44,0,0,1-.38,1A1.28,1.28,0,0,1,125.66,57.31Zm0-.35a.76.76,0,0,0,.59-.28,1.24,1.24,0,0,0,.24-.84,1.15,1.15,0,0,0-.25-.83.78.78,0,0,0-.58-.26.77.77,0,0,0-.58.26,1.19,1.19,0,0,0-.24.83,1.26,1.26,0,0,0,.24.86A.77.77,0,0,0,125.69,57Z" fill="#fff"/><path d="M127.19,56.52l.44-.09c.1.35.41.53.93.53a.9.9,0,0,0,.48-.12.38.38,0,0,0,.2-.34c0-.22-.17-.36-.5-.42l-.63-.11a1.19,1.19,0,0,1-.58-.25.64.64,0,0,1-.22-.51.7.7,0,0,1,.3-.58,1.2,1.2,0,0,1,.79-.24c.65,0,1,.24,1.19.71l-.42.08a.72.72,0,0,0-.75-.43.92.92,0,0,0-.46.11.33.33,0,0,0-.18.3c0,.2.16.33.46.38l.58.1c.6.1.91.38.91.82a.74.74,0,0,1-.34.62,1.6,1.6,0,0,1-.9.23A1.19,1.19,0,0,1,127.19,56.52Z" fill="#fff"/></svg>