<svg id="Capa_1" data-name="Capa 1" xmlns="http://www.w3.org/2000/svg" viewBox="0 0 53 53"><path d="M0,16.7H13.9c2.8,0,2.8,0,2.8-2.8,0-3.9.1-7.7,0-11.6,0-1.7.5-2.4,2.3-2.4q7.5.15,15,0c1.7,0,2.3.6,2.3,2.2,0,4.1.1,8.3,0,12.4,0,1.7.3,2.2,2.1,2.2,4.2-.2,8.4,0,12.6-.1,1.4,0,1.9.4,1.9,1.8V34c0,1.6-.5,2.1-2.1,2.1-4.1-.1-8.3,0-12.4-.1-1.6,0-2.3.5-2.2,2.2.1,4.1,0,8.1.1,12.2,0,1.7-.4,2.4-2.2,2.4-5.1.1-10.1.1-15.2.2-1.6,0-2.1-.5-2.1-2.1.1-4.2,0-8.4.1-12.6,0-1.5-.5-2-1.9-2-4.1.1-8.3,0-12.4,0C.8,36.3.1,35.8.1,33.8.1,28.3,0,22.8,0,16.7Z" fill="#e8e8e8"/></svg>