<svg id="Capa_1" data-name="Capa 1" xmlns="http://www.w3.org/2000/svg" viewBox="0 0 62.07 54.05"><path d="M35.45,38.52c0-1.1,0-2.14,0-3.17a3.1,3.1,0,0,0-3.24-3.2q-1.23,0-2.46,0a3.07,3.07,0,0,0-3.11,3.12c0,1.06,0,2.12,0,3.31-1.2-.2-2.32-.38-3.44-.58L3.12,34.35A3.55,3.55,0,0,1,0,30.67q0-9.09,0-18.16A3.55,3.55,0,0,1,3.74,8.78H19.67a26.78,26.78,0,0,1,0-2.7A6.52,6.52,0,0,1,26,.07q5.05-.13,10.13,0a6.63,6.63,0,0,1,6.29,6.67c0,.64,0,1.28,0,2.06h15.7a3.58,3.58,0,0,1,3.91,3.9q0,9,0,18a3.54,3.54,0,0,1-3,3.67L35.92,38.52A3.57,3.57,0,0,1,35.45,38.52Zm4-29.77c0-.89,0-1.68,0-2.46a3.44,3.44,0,0,0-3.22-3.17c-3.43-.07-6.86-.05-10.28,0a3.22,3.22,0,0,0-3.07,2.55,25.26,25.26,0,0,0-.25,3.07Z" fill="#e8e8e8"/><path d="M2.12,35.8l24.45,4.8a3.37,3.37,0,0,0,1.35,2.84c1.17.85,5,.86,6.21,0,.86-.63,1.17-1.27,1.36-2.86L60,35.78V50c0,2.61-1.45,4.06-4.06,4.06H6a3.63,3.63,0,0,1-4-3.87c0-4.59,0-9.19,0-13.78A5.57,5.57,0,0,1,2.12,35.8Z" fill="#e8e8e8"/><path d="M34,38.2c0,.82,0,1.64,0,2.46a1.68,1.68,0,0,1-1.8,1.84,23.22,23.22,0,0,1-2.36,0,1.66,1.66,0,0,1-1.74-1.81c0-1.66,0-3.33,0-5A1.61,1.61,0,0,1,29.79,34c.84,0,1.7,0,2.54,0A1.64,1.64,0,0,1,34,35.65V38.2Z" fill="#e8e8e8"/></svg>